<svg xmlns="http://www.w3.org/2000/svg" xmlns:xlink="http://www.w3.org/1999/xlink" width="569" height="489.153" viewBox="0 0 569 489.153">
  <defs>
    <linearGradient id="linear-gradient" x1="0.5" x2="0.5" y2="1" gradientUnits="objectBoundingBox">
      <stop offset="0" stop-color="#1d53a4"/>
      <stop offset="1" stop-color="#2c73e0"/>
    </linearGradient>
    <linearGradient id="linear-gradient-2" x1="0.5" x2="0.5" y2="1" gradientUnits="objectBoundingBox">
      <stop offset="0" stop-color="#463ae8"/>
      <stop offset="1" stop-color="#1f1377"/>
    </linearGradient>
    <linearGradient id="linear-gradient-3" x1="0.5" x2="0.5" y2="1" gradientUnits="objectBoundingBox">
      <stop offset="0" stop-color="#7869e3"/>
      <stop offset="1" stop-color="#1f1377"/>
    </linearGradient>
    <linearGradient id="linear-gradient-8" x1="0.5" x2="0.5" y2="1" gradientUnits="objectBoundingBox">
      <stop offset="0" stop-color="#7869e3"/>
      <stop offset="1" stop-color="#1f1092"/>
    </linearGradient>
    <linearGradient id="linear-gradient-9" x1="0.5" x2="0.5" y2="1" gradientUnits="objectBoundingBox">
      <stop offset="0" stop-color="#294878"/>
      <stop offset="1" stop-color="#2972e6"/>
    </linearGradient>
  </defs>
  <g id="OBJECTS_1_" transform="translate(-29.9 -94.926)">
    <g id="Group_4135" data-name="Group 4135" transform="translate(110.796 94.926)" opacity="0.23">
      <path id="Path_9759" data-name="Path 9759" d="M329.825,488.01a110.436,110.436,0,0,0,14.089-16.545c18.872-26.5,35.676-33.737,67.474-38,34-4.524,60.493-25.723,69.671-59.33a85.136,85.136,0,0,0,1.422-40.329c-3.49-16.674-12.28-32.056-11.633-49.506,1.163-28.825,24.042-49.636,37.873-73.032,16.416-27.791,16.416-61.786-2.456-88.672-27.92-39.941-88.155-48.343-128.742-23.525C338.1,123.11,319.872,184.9,268.039,188c-32.832,1.939-61.4-26.5-94.359-26.11-21.716.259-41.751,13.443-55.84,29.988-14.994,17.579-24.818,39.941-25.335,63.079s8.919,46.792,26.757,61.4c29.213,23.913,76.392,22.62,97.849,53.513,17.838,25.723,8.919,61.657,20.94,90.482,9.565,23.008,33.866,39.683,58.813,40.458C310.565,501.453,321.035,496.153,329.825,488.01Z" transform="translate(-92.484 -85.073)" fill="#4432c7" opacity="0.58"/>
    </g>
    <ellipse id="Ellipse_570" data-name="Ellipse 570" cx="284.5" cy="17.579" rx="284.5" ry="17.579" transform="translate(29.9 548.92)" fill="#eec12d" opacity="0.4"/>
    <g id="Group_4139" data-name="Group 4139" transform="translate(212.931 174.843)">
      <g id="Group_4137" data-name="Group 4137">
        <g id="Group_4136" data-name="Group 4136">
          <path id="Path_9760" data-name="Path 9760" d="M340.313,309.25H197.61a26.121,26.121,0,0,1-26.11-26.11v-123.7A12.468,12.468,0,0,1,184.038,146.9H349.232a15.888,15.888,0,0,1,15.9,15.9V284.432A24.824,24.824,0,0,1,340.313,309.25Z" transform="translate(-171.5 -146.9)" fill="#fff"/>
          <path id="Path_9761" data-name="Path 9761" d="M365.131,178.31v-15.9A15.557,15.557,0,0,0,349.62,146.9h-166.1A12,12,0,0,0,171.5,158.921V178.31Z" transform="translate(-171.5 -146.9)" fill="url(#linear-gradient)"/>
          <circle id="Ellipse_571" data-name="Ellipse 571" cx="4.266" cy="4.266" r="4.266" transform="translate(41.105 10.858)" fill="#fff"/>
        </g>
        <circle id="Ellipse_572" data-name="Ellipse 572" cx="4.266" cy="4.266" r="4.266" transform="translate(10.47 10.858)" fill="#fff"/>
        <circle id="Ellipse_573" data-name="Ellipse 573" cx="4.266" cy="4.266" r="4.266" transform="translate(25.723 10.858)" fill="#fff"/>
      </g>
      <g id="Group_4138" data-name="Group 4138" transform="translate(26.886 53.255)">
        <path id="Path_9762" data-name="Path 9762" d="M192.3,190.1v75.875H327.505" transform="translate(-192.3 -187.515)" fill="none" stroke="#5c45fa" stroke-linecap="round" stroke-linejoin="round" stroke-miterlimit="10" stroke-width="2.465"/>
        <path id="Path_9763" data-name="Path 9763" d="M192.3,265.185h0l35.546-38,29.6,20.164,21.328-34.383,22.62,20.164,26.11-40.329" transform="translate(-192.3 -186.725)" fill="none" stroke="#5c45fa" stroke-linecap="round" stroke-linejoin="round" stroke-miterlimit="10" stroke-width="2.465"/>
        <circle id="Ellipse_574" data-name="Ellipse 574" cx="5.3" cy="5.3" r="5.3" transform="translate(30.247 38.002)" fill="#de514d"/>
        <circle id="Ellipse_575" data-name="Ellipse 575" cx="5.3" cy="5.3" r="5.3" transform="translate(82.985 20.035)" fill="#de514d"/>
        <circle id="Ellipse_576" data-name="Ellipse 576" cx="5.3" cy="5.3" r="5.3" transform="translate(129.389)" fill="#de514d"/>
      </g>
    </g>
    <g id="Group_4144" data-name="Group 4144" transform="translate(66.997 267.263)">
      <g id="Group_4140" data-name="Group 4140" transform="translate(129.647 183.936)">
        <rect id="Rectangle_36981" data-name="Rectangle 36981" width="106.639" height="116.463" fill="url(#linear-gradient-2)"/>
        <rect id="Rectangle_36982" data-name="Rectangle 36982" width="90.611" height="116.463" fill="url(#linear-gradient-3)"/>
      </g>
      <g id="Group_4141" data-name="Group 4141" transform="translate(0 227.367)">
        <rect id="Rectangle_36983" data-name="Rectangle 36983" width="106.639" height="72.902" fill="#463ae8"/>
        <rect id="Rectangle_36984" data-name="Rectangle 36984" width="90.611" height="72.902" fill="url(#linear-gradient-3)"/>
      </g>
      <g id="Group_4142" data-name="Group 4142" transform="translate(259.165 152.138)">
        <rect id="Rectangle_36985" data-name="Rectangle 36985" width="106.639" height="148.261" fill="url(#linear-gradient-2)"/>
        <rect id="Rectangle_36986" data-name="Rectangle 36986" width="90.611" height="148.261" fill="url(#linear-gradient-3)"/>
      </g>
      <g id="Group_4143" data-name="Group 4143" transform="translate(388.813 82.726)">
        <rect id="Rectangle_36987" data-name="Rectangle 36987" width="106.639" height="217.673" fill="url(#linear-gradient-2)"/>
        <rect id="Rectangle_36988" data-name="Rectangle 36988" width="90.611" height="217.673" fill="url(#linear-gradient-8)"/>
      </g>
      <path id="Path_9764" data-name="Path 9764" d="M58.6,425.993h90.352l32.573-43.3h80.658l54.677-41.88H409.8l36.58-72.773h76.392l37.1-47.438" transform="translate(-58.6 -217.756)" fill="none" stroke="#1c6312" stroke-linecap="round" stroke-linejoin="round" stroke-miterlimit="10" stroke-width="5.748"/>
      <path id="Path_9765" data-name="Path 9765" d="M430.8,220.21l22.1-1.81,3.619,23.008" transform="translate(50.304 -218.4)" fill="none" stroke="#1c6312" stroke-linecap="round" stroke-linejoin="round" stroke-miterlimit="10" stroke-width="5.748"/>
    </g>
    <g id="Group_4145" data-name="Group 4145" transform="translate(382.003 131.67)">
      <path id="Path_9766" data-name="Path 9766" d="M342.112,172.184h-20.94A18.812,18.812,0,0,1,302.3,153.312v-20.94A18.812,18.812,0,0,1,321.172,113.5h20.94a18.812,18.812,0,0,1,18.872,18.872v20.94A18.812,18.812,0,0,1,342.112,172.184Z" transform="translate(-302.3 -113.5)" fill="url(#linear-gradient-9)"/>
      <path id="Path_9767" data-name="Path 9767" d="M314.5,132.034l7.368,19.906,25.076-26.24" transform="translate(-298.73 -109.93)" fill="none" stroke="#fff8f3" stroke-linecap="round" stroke-linejoin="round" stroke-miterlimit="10" stroke-width="4.054"/>
    </g>
    <g id="Group_4153" data-name="Group 4153" transform="translate(47.092 118.615)">
      <g id="Group_4152" data-name="Group 4152">
        <ellipse id="Ellipse_577" data-name="Ellipse 577" cx="64.5" cy="63.983" rx="64.5" ry="63.983" transform="translate(3.619)" fill="#e59322"/>
        <circle id="Ellipse_578" data-name="Ellipse 578" cx="59.976" cy="59.976" r="59.976" transform="translate(15.64 1.293)" fill="#f7e442"/>
        <g id="Group_4146" data-name="Group 4146" transform="translate(0 63.079)">
          <path id="Path_9768" data-name="Path 9768" d="M58.194,155.044H44.622a1.422,1.422,0,0,1,0-2.844H58.194a1.434,1.434,0,0,1,1.422,1.422A1.356,1.356,0,0,1,58.194,155.044Z" transform="translate(-43.2 -152.2)" fill="#d88016"/>
        </g>
        <g id="Group_4147" data-name="Group 4147" transform="translate(0.905 50.023)">
          <path id="Path_9769" data-name="Path 9769" d="M59.411,144.944H45.322a1.422,1.422,0,0,1,0-2.844H59.411a1.422,1.422,0,0,1,0,2.844Z" transform="translate(-43.9 -142.1)" fill="#d88016"/>
        </g>
        <g id="Group_4148" data-name="Group 4148" transform="translate(1.422 80.141)">
          <path id="Path_9770" data-name="Path 9770" d="M61.75,168.244H45.722a1.422,1.422,0,0,1,0-2.844H61.75a1.422,1.422,0,0,1,0,2.844Z" transform="translate(-44.3 -165.4)" fill="#d88016"/>
        </g>
        <g id="Group_4151" data-name="Group 4151" transform="translate(28.825 13.443)">
          <g id="Group_4149" data-name="Group 4149" transform="translate(20.94)">
            <path id="Path_9771" data-name="Path 9771" d="M108.123,116.468a44.737,44.737,0,0,0-24.3,7.239,15.493,15.493,0,0,1-1.422-1.551,46.49,46.49,0,0,1,25.852-7.756,47.2,47.2,0,0,1,28.437,84.665l-1.81-1.293a45.106,45.106,0,0,0,18.1-36.193C152.846,136.633,132.811,116.468,108.123,116.468Z" transform="translate(-81.495 -113.624)" fill="#d88016"/>
            <path id="Path_9772" data-name="Path 9772" d="M136.765,200.016l-2.714-2.068.646-.517a44.531,44.531,0,0,0-26.24-80.27,44.3,44.3,0,0,0-24.042,7.109l-.388.259-.388-.388a15.493,15.493,0,0,1-1.422-1.551l-.517-.517.517-.388a46.95,46.95,0,0,1,26.11-7.885,47.85,47.85,0,0,1,28.825,85.828Zm-.9-2.068.9.646a46.692,46.692,0,0,0-28.437-83.5A46.14,46.14,0,0,0,83.38,122.46a3.427,3.427,0,0,1,.646.776,44.724,44.724,0,0,1,24.172-7.109,45.7,45.7,0,0,1,27.662,81.821Z" transform="translate(-81.7 -113.8)" fill="#e59322"/>
          </g>
          <g id="Group_4150" data-name="Group 4150" transform="translate(0 24.042)">
            <path id="Path_9773" data-name="Path 9773" d="M73.626,134.422a45.027,45.027,0,0,0,39.295,66.7A44.543,44.543,0,0,0,130.5,197.5l1.939,1.422A46.9,46.9,0,0,1,66,156.008,47.976,47.976,0,0,1,71.946,133,8.9,8.9,0,0,0,73.626,134.422Z" transform="translate(-65.354 -132.224)" fill="#d88016"/>
            <path id="Path_9774" data-name="Path 9774" d="M113.068,204.01a47.778,47.778,0,0,1-41.492-71.093l.259-.517.517.388a16.374,16.374,0,0,1,1.68,1.422l.388.259-.259.388a44.5,44.5,0,0,0,38.778,65.793,42.055,42.055,0,0,0,17.321-3.619l.259-.129,2.973,2.2-.9.388A42.451,42.451,0,0,1,113.068,204.01Zm-40.846-69.8a46.677,46.677,0,0,0,40.846,68.766,46.048,46.048,0,0,0,18.484-3.878l-.9-.646a44.746,44.746,0,0,1-17.45,3.49,45.721,45.721,0,0,1-40.07-67.086C72.739,134.6,72.48,134.339,72.221,134.21Z" transform="translate(-65.5 -132.4)" fill="#e59322"/>
          </g>
        </g>
      </g>
    </g>
    <g id="Group_4161" data-name="Group 4161" transform="translate(146.234 231.588)">
      <g id="Group_4160" data-name="Group 4160">
        <ellipse id="Ellipse_579" data-name="Ellipse 579" cx="37.485" cy="37.227" rx="37.485" ry="37.227" transform="translate(2.068)" fill="#e59322"/>
        <circle id="Ellipse_580" data-name="Ellipse 580" cx="35" cy="35" r="35" transform="translate(8.667 0.813)" fill="#f7e442"/>
        <g id="Group_4154" data-name="Group 4154" transform="translate(0 36.839)">
          <path id="Path_9775" data-name="Path 9775" d="M128.56,220.851h-7.885a.776.776,0,0,1,0-1.551h7.885a.834.834,0,0,1,.776.776C129.465,220.463,129.077,220.851,128.56,220.851Z" transform="translate(-119.9 -219.3)" fill="#d88016"/>
        </g>
        <g id="Group_4155" data-name="Group 4155" transform="translate(0.646 29.213)">
          <path id="Path_9776" data-name="Path 9776" d="M129.319,214.951h-8.143a.776.776,0,0,1,0-1.551h8.143a.776.776,0,0,1,0,1.551Z" transform="translate(-120.4 -213.4)" fill="#d88016"/>
        </g>
        <g id="Group_4156" data-name="Group 4156" transform="translate(0.905 46.663)">
          <path id="Path_9777" data-name="Path 9777" d="M130.682,228.451h-9.307a.776.776,0,0,1,0-1.551h9.307a.776.776,0,1,1,0,1.551Z" transform="translate(-120.6 -226.9)" fill="#d88016"/>
        </g>
        <g id="Group_4159" data-name="Group 4159" transform="translate(16.674 7.885)">
          <g id="Group_4157" data-name="Group 4157" transform="translate(12.28)">
            <path id="Path_9778" data-name="Path 9778" d="M157.594,198.363a25.154,25.154,0,0,0-14.089,4.266,5.971,5.971,0,0,0-.9-.9,26.981,26.981,0,0,1,14.994-4.524,27.39,27.39,0,0,1,27.274,27.4,27.687,27.687,0,0,1-10.729,21.845l-1.034-.776a26.24,26.24,0,0,0-15.511-47.309Z" transform="translate(-142.212 -196.812)" fill="#d88016"/>
            <path id="Path_9779" data-name="Path 9779" d="M174.227,246.923l-1.551-1.163.388-.259a26.391,26.391,0,0,0,10.47-20.811,25.7,25.7,0,0,0-39.683-21.716l-.259.129-.129-.259a5.971,5.971,0,0,0-.9-.9l-.259-.259.388-.259a27.634,27.634,0,0,1,42.785,23.267,27.923,27.923,0,0,1-10.858,22.1Zm-.517-1.163.517.388a27.17,27.17,0,0,0-16.545-48.6,26.008,26.008,0,0,0-14.477,4.266l.388.388a25.989,25.989,0,0,1,14.089-4.136,26.507,26.507,0,0,1,26.369,26.5A27.019,27.019,0,0,1,173.71,245.76Z" transform="translate(-142.3 -196.9)" fill="#e59322"/>
          </g>
          <g id="Group_4158" data-name="Group 4158" transform="translate(0 13.96)">
            <path id="Path_9780" data-name="Path 9780" d="M137.524,208.846a25.851,25.851,0,0,0-3.231,12.538,26.122,26.122,0,0,0,25.981,26.24,26.669,26.669,0,0,0,10.212-2.068l1.163.9A27.326,27.326,0,0,1,133,221.514a27.247,27.247,0,0,1,3.49-13.314A2.815,2.815,0,0,1,137.524,208.846Z" transform="translate(-132.741 -207.554)" fill="#d88016"/>
            <path id="Path_9781" data-name="Path 9781" d="M160.462,249.322A27.721,27.721,0,0,1,132.8,221.531a26.734,26.734,0,0,1,3.49-13.443l.129-.388.259.259c.388.259.646.517,1.034.776l.259.129-.129.259a25.956,25.956,0,0,0,22.62,38.261,24.71,24.71,0,0,0,10.082-2.068l.129-.129,1.68,1.293-.517.259A26.2,26.2,0,0,1,160.462,249.322Zm-23.654-40.587a27.638,27.638,0,0,0-3.231,12.8,27.114,27.114,0,0,0,27.015,27.145,27.457,27.457,0,0,0,10.729-2.2l-.517-.388a24.881,24.881,0,0,1-10.212,2.068,26.424,26.424,0,0,1-26.369-26.5,25.615,25.615,0,0,1,3.1-12.409Z" transform="translate(-132.8 -207.7)" fill="#e59322"/>
          </g>
        </g>
      </g>
    </g>
  </g>
</svg>
